<?xml version="1.0" encoding="UTF-8" standalone="no"?>
<!-- Created with Inkscape (http://www.inkscape.org/) -->
<svg
   xmlns:dc="http://purl.org/dc/elements/1.1/"
   xmlns:cc="http://creativecommons.org/ns#"
   xmlns:rdf="http://www.w3.org/1999/02/22-rdf-syntax-ns#"
   xmlns:svg="http://www.w3.org/2000/svg"
   xmlns="http://www.w3.org/2000/svg"
   xmlns:xlink="http://www.w3.org/1999/xlink"
   xmlns:sodipodi="http://sodipodi.sourceforge.net/DTD/sodipodi-0.dtd"
   xmlns:inkscape="http://www.inkscape.org/namespaces/inkscape"
   id="svg2"
   sodipodi:version="0.32"
   inkscape:version="0.46"
   width="1440"
   height="1913"
   version="1.0"
   sodipodi:docname="profilejpg.svg"
   inkscape:output_extension="org.inkscape.output.svg.inkscape"
   inkscape:export-filename="/home/jaket/Desktop/profile.png"
   inkscape:export-xdpi="15.93"
   inkscape:export-ydpi="15.93">
  <metadata
     id="metadata7">
    <rdf:RDF>
      <cc:Work
         rdf:about="">
        <dc:format>image/svg+xml</dc:format>
        <dc:type
           rdf:resource="http://purl.org/dc/dcmitype/StillImage" />
      </cc:Work>
    </rdf:RDF>
  </metadata>
  <defs
     id="defs5">
    <linearGradient
       inkscape:collect="always"
       id="linearGradient3554">
      <stop
         style="stop-color:#787473;stop-opacity:1;"
         offset="0"
         id="stop3556" />
      <stop
         style="stop-color:#787473;stop-opacity:0;"
         offset="1"
         id="stop3558" />
    </linearGradient>
    <linearGradient
       id="linearGradient3534">
      <stop
         style="stop-color:#000000;stop-opacity:0.51327431;"
         offset="0"
         id="stop3536" />
      <stop
         style="stop-color:#000000;stop-opacity:0;"
         offset="1"
         id="stop3538" />
    </linearGradient>
    <linearGradient
       id="linearGradient3263">
      <stop
         style="stop-color:#8e8e8e;stop-opacity:0.35294119;"
         offset="0"
         id="stop3265" />
      <stop
         style="stop-color:#621212;stop-opacity:0;"
         offset="1"
         id="stop3267" />
    </linearGradient>
    <linearGradient
       inkscape:collect="always"
       id="linearGradient3248">
      <stop
         style="stop-color:#e9e2d1;stop-opacity:1;"
         offset="0"
         id="stop3250" />
      <stop
         style="stop-color:#e9e2d1;stop-opacity:0;"
         offset="1"
         id="stop3252" />
    </linearGradient>
    <linearGradient
       id="linearGradient3228">
      <stop
         style="stop-color:#ffffff;stop-opacity:1;"
         offset="0"
         id="stop3230" />
      <stop
         style="stop-color:#e9e2d1;stop-opacity:0;"
         offset="1"
         id="stop3232" />
    </linearGradient>
    <linearGradient
       inkscape:collect="always"
       id="linearGradient3202">
      <stop
         style="stop-color:#dcd3bc;stop-opacity:1;"
         offset="0"
         id="stop3204" />
      <stop
         style="stop-color:#dcd3bc;stop-opacity:0;"
         offset="1"
         id="stop3206" />
    </linearGradient>
    <linearGradient
       id="linearGradient3192">
      <stop
         style="stop-color:#767272;stop-opacity:1;"
         offset="0"
         id="stop3194" />
      <stop
         style="stop-color:#767272;stop-opacity:0;"
         offset="1"
         id="stop3196" />
    </linearGradient>
    <inkscape:perspective
       sodipodi:type="inkscape:persp3d"
       inkscape:vp_x="0 : 526.18109 : 1"
       inkscape:vp_y="0 : 1000 : 0"
       inkscape:vp_z="744.09448 : 526.18109 : 1"
       inkscape:persp3d-origin="372.04724 : 350.78739 : 1"
       id="perspective9" />
    <linearGradient
       inkscape:collect="always"
       xlink:href="#linearGradient3263"
       id="linearGradient3418"
       gradientUnits="userSpaceOnUse"
       gradientTransform="translate(-72.844887,-77.17661)"
       x1="376.42902"
       y1="1139.6877"
       x2="727.04388"
       y2="1115.4916" />
    <linearGradient
       inkscape:collect="always"
       xlink:href="#linearGradient3248"
       id="linearGradient3455"
       gradientUnits="userSpaceOnUse"
       x1="566.33276"
       y1="727.78229"
       x2="617.24866"
       y2="687.12134" />
    <linearGradient
       inkscape:collect="always"
       xlink:href="#linearGradient3228"
       id="linearGradient3457"
       gradientUnits="userSpaceOnUse"
       x1="398.41531"
       y1="643.57068"
       x2="501.59964"
       y2="774.35657" />
    <linearGradient
       inkscape:collect="always"
       xlink:href="#linearGradient3192"
       id="linearGradient3459"
       gradientUnits="userSpaceOnUse"
       x1="550.87964"
       y1="479.99997"
       x2="942.8313"
       y2="918.11987" />
    <linearGradient
       inkscape:collect="always"
       xlink:href="#linearGradient3202"
       id="linearGradient3461"
       gradientUnits="userSpaceOnUse"
       x1="589.59277"
       y1="642.45221"
       x2="572.02454"
       y2="734.18353" />
    <linearGradient
       inkscape:collect="always"
       xlink:href="#linearGradient3228"
       id="linearGradient3463"
       gradientUnits="userSpaceOnUse"
       gradientTransform="translate(-154.55048,60.751336)"
       x1="398.41531"
       y1="643.57068"
       x2="446.41696"
       y2="756.93048" />
    <linearGradient
       inkscape:collect="always"
       xlink:href="#linearGradient3248"
       id="linearGradient3505"
       gradientUnits="userSpaceOnUse"
       x1="566.33276"
       y1="727.78229"
       x2="617.24866"
       y2="687.12134" />
    <linearGradient
       inkscape:collect="always"
       xlink:href="#linearGradient3228"
       id="linearGradient3507"
       gradientUnits="userSpaceOnUse"
       x1="398.41531"
       y1="643.57068"
       x2="501.59964"
       y2="774.35657" />
    <linearGradient
       inkscape:collect="always"
       xlink:href="#linearGradient3192"
       id="linearGradient3509"
       gradientUnits="userSpaceOnUse"
       x1="550.87964"
       y1="479.99997"
       x2="942.8313"
       y2="918.11987" />
    <linearGradient
       inkscape:collect="always"
       xlink:href="#linearGradient3202"
       id="linearGradient3511"
       gradientUnits="userSpaceOnUse"
       x1="589.59277"
       y1="642.45221"
       x2="572.02454"
       y2="734.18353" />
    <linearGradient
       inkscape:collect="always"
       xlink:href="#linearGradient3228"
       id="linearGradient3513"
       gradientUnits="userSpaceOnUse"
       gradientTransform="translate(-154.55048,60.751336)"
       x1="398.41531"
       y1="643.57068"
       x2="446.41696"
       y2="756.93048" />
    <radialGradient
       inkscape:collect="always"
       xlink:href="#linearGradient3534"
       id="radialGradient3540"
       cx="589.23822"
       cy="1010.7317"
       fx="589.23822"
       fy="1010.7317"
       r="92.528164"
       gradientTransform="matrix(1.3890704,-0.8213715,0.8306298,1.4047277,-1068.799,74.912429)"
       gradientUnits="userSpaceOnUse" />
    <radialGradient
       inkscape:collect="always"
       xlink:href="#linearGradient3534"
       id="radialGradient3544"
       gradientUnits="userSpaceOnUse"
       gradientTransform="matrix(1.4273965,-0.7527992,0.9432489,1.7885118,-1218.4482,-373.12754)"
       cx="589.23822"
       cy="1010.7317"
       fx="589.23822"
       fy="1010.7317"
       r="92.528164" />
    <linearGradient
       inkscape:collect="always"
       xlink:href="#linearGradient3554"
       id="linearGradient3560"
       x1="667.98975"
       y1="990.85706"
       x2="238.30096"
       y2="1070.1532"
       gradientUnits="userSpaceOnUse" />
    <filter
       inkscape:collect="always"
       id="filter3938"
       x="-0.11672268"
       width="1.2334454"
       y="-0.040928781"
       height="1.0818576">
      <feGaussianBlur
         inkscape:collect="always"
         stdDeviation="5.6365358"
         id="feGaussianBlur3940" />
    </filter>
    <filter
       inkscape:collect="always"
       id="filter3962"
       x="-0.04289135"
       width="1.0857827"
       y="-0.22406184"
       height="1.4481237">
      <feGaussianBlur
         inkscape:collect="always"
         stdDeviation="3.8657838"
         id="feGaussianBlur3964" />
    </filter>
    <linearGradient
       inkscape:collect="always"
       xlink:href="#linearGradient3554"
       id="linearGradient3993"
       gradientUnits="userSpaceOnUse"
       x1="667.98975"
       y1="990.85706"
       x2="238.30096"
       y2="1070.1532" />
    <radialGradient
       inkscape:collect="always"
       xlink:href="#linearGradient3534"
       id="radialGradient3995"
       gradientUnits="userSpaceOnUse"
       gradientTransform="matrix(1.4273965,-0.7527992,0.9432489,1.7885118,-1218.4482,-373.12754)"
       cx="589.23822"
       cy="1010.7317"
       fx="589.23822"
       fy="1010.7317"
       r="92.528164" />
    <linearGradient
       inkscape:collect="always"
       xlink:href="#linearGradient3248"
       id="linearGradient3997"
       gradientUnits="userSpaceOnUse"
       x1="566.33276"
       y1="727.78229"
       x2="617.24866"
       y2="687.12134" />
    <linearGradient
       inkscape:collect="always"
       xlink:href="#linearGradient3228"
       id="linearGradient3999"
       gradientUnits="userSpaceOnUse"
       x1="398.41531"
       y1="643.57068"
       x2="501.59964"
       y2="774.35657" />
    <linearGradient
       inkscape:collect="always"
       xlink:href="#linearGradient3192"
       id="linearGradient4001"
       gradientUnits="userSpaceOnUse"
       x1="550.87964"
       y1="479.99997"
       x2="942.8313"
       y2="918.11987" />
    <linearGradient
       inkscape:collect="always"
       xlink:href="#linearGradient3202"
       id="linearGradient4003"
       gradientUnits="userSpaceOnUse"
       x1="589.59277"
       y1="642.45221"
       x2="572.02454"
       y2="734.18353" />
    <linearGradient
       inkscape:collect="always"
       xlink:href="#linearGradient3228"
       id="linearGradient4005"
       gradientUnits="userSpaceOnUse"
       gradientTransform="translate(-154.55048,60.751336)"
       x1="398.41531"
       y1="643.57068"
       x2="446.41696"
       y2="756.93048" />
  </defs>
  <sodipodi:namedview
     inkscape:window-height="778"
     inkscape:window-width="1280"
     inkscape:pageshadow="2"
     inkscape:pageopacity="0.0"
     guidetolerance="10.0"
     gridtolerance="10.0"
     objecttolerance="10.0"
     borderopacity="1.0"
     bordercolor="#666666"
     pagecolor="#ffffff"
     id="base"
     showgrid="false"
     inkscape:zoom="0.61041667"
     inkscape:cx="465.25597"
     inkscape:cy="812.30938"
     inkscape:window-x="0"
     inkscape:window-y="22"
     inkscape:current-layer="layer4" />
  <g
     inkscape:groupmode="layer"
     id="layer2"
     inkscape:label="background"
     style="display:none">
    <image
       xlink:href="/home/jaket/server/pics/portraits/bw1 big.jpg"
       sodipodi:absref="/home/jaket/server/pics/portraits/bw1 big.jpg"
       width="1440"
       height="1913"
       id="image11"
       x="-73.297577"
       y="-34.852219" />
  </g>
  <g
     inkscape:groupmode="layer"
     id="layer1"
     inkscape:label="vector"
     style="display:none">
    <path
       style="fill:none;fill-rule:evenodd;stroke:#000000;stroke-width:1px;stroke-linecap:butt;stroke-linejoin:miter;stroke-opacity:1"
       d="M 445.33401,278.81781 C 445.33401,283.98111 445.33401,283.98111 445.33401,278.81781 z"
       id="path2390" />
    <path
       style="fill:#867b60;fill-opacity:0.57647059;fill-rule:evenodd;stroke:none;stroke-width:5.30000019;stroke-linecap:butt;stroke-linejoin:miter;stroke-miterlimit:4;stroke-dasharray:none;stroke-opacity:1"
       d="M 2074.3556,1567.1354 C 2074.3556,1567.1354 1798.9681,1634.0462 1758.5315,1643.6987 C 1629.9071,1696.5962 1554.9123,1795.6882 1497.3576,1915.6576 L 3317.4183,1923.4026 C 3317.4183,1923.4026 3322.0831,1620.0211 2935.1781,1555.7932 C 2502.4824,-756.722 2029.5764,1309.8557 2074.3556,1567.1354 z"
       id="path2394"
       sodipodi:nodetypes="cccccc" />
    <g
       id="g3446"
       transform="matrix(0.9871613,0.1597267,-0.1597267,0.9871613,120.28458,-109.2946)">
      <path
         sodipodi:nodetypes="cccc"
         id="path3238"
         d="M 591.03568,674.77783 L 600.71685,685.42712 C 605.55744,689.78365 593.94003,713.01847 570.22116,749.32287 C 587.16321,712.05035 592.0038,675.26189 591.03568,674.77783 z"
         style="fill:url(#linearGradient3455);fill-opacity:1;fill-rule:evenodd;stroke:none;stroke-width:1px;stroke-linecap:butt;stroke-linejoin:miter;stroke-opacity:1" />
      <g
         id="g3431">
        <path
           style="fill:url(#linearGradient3457);fill-opacity:1;fill-rule:evenodd;stroke:none;stroke-width:1px;stroke-linecap:butt;stroke-linejoin:miter;stroke-opacity:1"
           d="M 434.01255,609.59322 C 434.01255,609.59322 390.20056,723.13024 514.79091,783.47206 C 421.69042,788.94856 398.41531,676.68033 398.41531,676.68033 C 398.41531,676.68033 418.95218,601.37847 434.01255,609.59322 z"
           id="path3210"
           sodipodi:nodetypes="cccc" />
        <g
           id="g3420">
          <path
             sodipodi:nodetypes="cscccscc"
             id="path3166"
             d="M 1243.1653,587.68722 C 1243.1653,587.68722 1087.9408,579.47247 926.38405,574.59496 C 764.82733,569.71746 596.9384,568.17719 571.60959,581.52616 C 568.4348,568.0333 428.04274,508.1281 394.30793,666.4119 C 359.85251,666.31162 346.38857,687.63333 346.38857,687.63333 C 346.38857,687.63333 236.07636,604.71401 236.85859,732.81445 C 236.90724,740.78105 236.85859,741.0292 236.85859,741.0292 C 236.85859,741.0292 265.61021,821.80756 281.35514,827.96862"
             style="fill:none;fill-rule:evenodd;stroke:url(#linearGradient3459);stroke-width:12.69999981;stroke-linecap:butt;stroke-linejoin:miter;stroke-miterlimit:4;stroke-dasharray:none;stroke-opacity:1" />
          <path
             sodipodi:nodetypes="cccc"
             id="path3200"
             d="M 570.92503,601.37847 C 570.92503,601.37847 612.94362,723.13598 513.42179,782.10294 C 644.85777,745.13657 603.78402,593.16372 603.78402,593.16372 L 570.92503,601.37847 z"
             style="fill:url(#linearGradient3461);fill-opacity:1;fill-rule:evenodd;stroke:none;stroke-width:1px;stroke-linecap:butt;stroke-linejoin:miter;stroke-opacity:1" />
          <path
             sodipodi:nodetypes="cczc"
             id="path3256"
             d="M 279.46207,668.89237 C 279.46207,668.89237 254.04431,721.92206 288.59974,822.92481 C 267.13994,814.84766 244.9369,747.39957 242.41265,739.36789 C 239.75033,730.89687 242.135,660.67762 279.46207,668.89237 z"
             style="fill:url(#linearGradient3463);fill-opacity:1;fill-rule:evenodd;stroke:none;stroke-width:1px;stroke-linecap:butt;stroke-linejoin:miter;stroke-opacity:1" />
        </g>
      </g>
    </g>
    <path
       style="fill:none;fill-rule:evenodd;stroke:url(#radialGradient3540);stroke-width:13.5;stroke-linecap:round;stroke-linejoin:miter;stroke-miterlimit:4;stroke-dasharray:none;stroke-opacity:1"
       d="M 503.46003,866.48196 C 503.46003,866.48196 695.79307,1002.2465 673.16566,1154.9815"
       id="path3532" />
  </g>
  <g
     inkscape:groupmode="layer"
     id="layer5"
     inkscape:label="neck"
     style="display:inline" />
  <g
     inkscape:groupmode="layer"
     id="layer4"
     inkscape:label="head"
     style="display:inline">
    <g
       id="g3979"
       transform="matrix(-0.7551475,0,0,0.7667765,1356.4672,254.80742)"
       inkscape:export-filename="/home/jaket/Desktop/profile.png"
       inkscape:export-xdpi="39.290001"
       inkscape:export-ydpi="39.290001">
      <g
         id="g3966"
         style="display:inline">
        <path
           style="opacity:1;fill:#bebebe;fill-opacity:1;fill-rule:evenodd;stroke:none;stroke-width:5.30000019000000044;stroke-linecap:butt;stroke-linejoin:miter;stroke-miterlimit:4;stroke-dasharray:none;stroke-opacity:1;display:inline"
           d="M 360.0625,-23.1875 C 360.0625,-23.187499 299.00904,0.66895173 292.34375,45.75 C 198.32549,72.964657 73.407446,342.36573 357.15625,485.15625 C 366.55303,485.2573 348.92919,521.21671 346.21875,512.21875 L 325.90625,563.8125 L 354.65625,627.4375 C 266.33367,716.92874 102.99184,833.5948 328.78125,901.59375 C 323.74388,913.14257 310.5625,942 310.5625,942 C 310.5625,942 281.46062,1010.3661 303.12332,1021.7927 C 324.786,1033.2194 331.75,1051.4688 331.75,1051.4688 C 331.75,1051.4688 264.7977,1039.0472 318.5,1131.7188 C 341.08355,1170.6901 302.0625,1207.5 302.0625,1207.5 C 302.06249,1207.5 135.45874,1336.9706 432.25,1417.375 C 530.85186,1420.6497 561.46875,1395.5312 561.46875,1395.5312 C 604.4834,1432.768 526.43583,1521.6622 533.6875,1554.7188 C 518.08874,1556.8054 502.49379,1558.8857 486.90625,1560.9375 C 486.90626,1560.9374 251.53042,1555.8475 211.09375,1565.5 C 82.469334,1618.3975 -32.53911,1789.4994 -90.09375,1909.4688 L 1729.9688,1917.2188 C 1729.9687,1917.2188 1734.4794,1624.0265 1367.0938,1553.0625 C 1342.3362,1525.4724 1284.9873,1464.5189 1206.2812,1341.0938 C 1202.8781,1195.3106 1344.3125,962.59375 1344.3125,962.59375 C 1344.3126,962.59376 1485.5716,790.61475 1479.1562,758.15625 C 1472.741,725.69776 1556.802,739.59827 1549.125,714.78125 C 1541.448,689.96426 1569.1551,388.3041 1404,250.71875 C 1235.9632,110.73266 929.27591,23.699881 693.6875,0.5 C 458.0991,-22.699879 360.0625,-23.1875 360.0625,-23.1875 z"
           id="path3516"
           sodipodi:nodetypes="ccccccccscsccccsccccccssssc" />
        <path
           style="fill:url(#linearGradient3993);fill-opacity:1;fill-rule:evenodd;stroke:none;stroke-width:10;stroke-linecap:butt;stroke-linejoin:miter;stroke-miterlimit:4;stroke-dasharray:none;stroke-opacity:1;filter:url(#filter3962)"
           d="M 341.883,1027.7733 C 338.6049,1033.1172 320.64156,1057.5805 353.17943,1052.9906 C 388.54068,1051.471 474.46956,1043.9289 491.32116,1039.5452 C 491.32116,1039.5452 565.97558,1029.1238 547.30287,1012.1532 C 516.19017,1023.4669 341.883,1027.7733 341.883,1027.7733 z"
           id="path3528"
           sodipodi:nodetypes="ccccc" />
        <path
           style="opacity:0.91237117;fill:none;fill-rule:evenodd;stroke:url(#radialGradient3995);stroke-width:8;stroke-linecap:round;stroke-linejoin:miter;stroke-miterlimit:4;stroke-dasharray:none;stroke-opacity:1;display:inline;filter:url(#filter3938)"
           d="M 528.57826,830.01221 C 528.57826,830.01221 681.34142,1009.1419 621.62859,1151.5299"
           id="path3542" />
      </g>
      <g
         transform="matrix(0.9683876,0.2494503,-0.2494503,0.9683876,197.00684,-140.36516)"
         id="g3468"
         style="display:inline">
        <path
           style="fill:url(#linearGradient3997);fill-opacity:1;fill-rule:evenodd;stroke:none;stroke-width:1px;stroke-linecap:butt;stroke-linejoin:miter;stroke-opacity:1"
           d="M 591.03568,674.77783 L 600.71685,685.42712 C 605.55744,689.78365 593.94003,713.01847 570.22116,749.32287 C 587.16321,712.05035 592.0038,675.26189 591.03568,674.77783 z"
           id="path3470"
           sodipodi:nodetypes="cccc" />
        <g
           id="g3472">
          <path
             sodipodi:nodetypes="cccc"
             id="path3474"
             d="M 434.01255,609.59322 C 434.01255,609.59322 390.20056,723.13024 514.79091,783.47206 C 421.69042,788.94856 398.41531,676.68033 398.41531,676.68033 C 398.41531,676.68033 418.95218,601.37847 434.01255,609.59322 z"
             style="fill:url(#linearGradient3999);fill-opacity:1;fill-rule:evenodd;stroke:none;stroke-width:1px;stroke-linecap:butt;stroke-linejoin:miter;stroke-opacity:1" />
          <g
             id="g3476">
            <path
               style="fill:none;fill-rule:evenodd;stroke:url(#linearGradient4001);stroke-width:12.69999981;stroke-linecap:butt;stroke-linejoin:miter;stroke-miterlimit:4;stroke-dasharray:none;stroke-opacity:1"
               d="M 1243.1653,587.68722 C 1243.1653,587.68722 1087.9408,579.47247 926.38405,574.59496 C 764.82733,569.71746 596.9384,568.17719 571.60959,581.52616 C 568.4348,568.0333 428.04274,508.1281 394.30793,666.4119 C 359.85251,666.31162 346.38857,687.63333 346.38857,687.63333 C 346.38857,687.63333 236.07636,604.71401 236.85859,732.81445 C 236.90724,740.78105 236.85859,741.0292 236.85859,741.0292 C 236.85859,741.0292 265.61021,821.80756 281.35514,827.96862"
               id="path3478"
               sodipodi:nodetypes="cscccscc" />
            <path
               style="fill:url(#linearGradient4003);fill-opacity:1;fill-rule:evenodd;stroke:none;stroke-width:1px;stroke-linecap:butt;stroke-linejoin:miter;stroke-opacity:1"
               d="M 570.92503,601.37847 C 570.92503,601.37847 612.94362,723.13598 513.42179,782.10294 C 644.85777,745.13657 603.78402,593.16372 603.78402,593.16372 L 570.92503,601.37847 z"
               id="path3480"
               sodipodi:nodetypes="cccc" />
            <path
               style="fill:url(#linearGradient4005);fill-opacity:1;fill-rule:evenodd;stroke:none;stroke-width:1px;stroke-linecap:butt;stroke-linejoin:miter;stroke-opacity:1"
               d="M 279.46207,668.89237 C 279.46207,668.89237 254.04431,721.92206 288.59974,822.92481 C 267.13994,814.84766 244.9369,747.39957 242.41265,739.36789 C 239.75033,730.89687 242.135,660.67762 279.46207,668.89237 z"
               id="path3482"
               sodipodi:nodetypes="cczc" />
          </g>
        </g>
      </g>
    </g>
  </g>
  <g
     inkscape:groupmode="layer"
     id="layer3"
     style="display:none">
    <path
       style="fill:url(#linearGradient3418);fill-opacity:1;fill-rule:evenodd;stroke:none;stroke-width:1px;stroke-linecap:butt;stroke-linejoin:miter;stroke-opacity:1;display:inline"
       d="M 320.30033,1109.1622 C 377.39837,1067.0091 488.23614,1063.3239 527.37376,1042.2588 C 566.51138,1021.1936 558.24188,991.763 549.55008,984.9959 C 506.26008,1001.6452 434.95342,1001.5687 387.03603,987.7578 C 359.98305,982.8391 335.82061,999.7211 308.97428,990.7523 C 302.63168,1026.8617 334.93911,1039.9171 366.06901,1024.1947 C 410.197,1005.2436 459.36955,1021.412 506.74539,1015.7719 C 518.55488,1013.7761 485.68418,1033.6255 481.53265,1033.6429 C 421.24236,1035.8381 315.77195,1034.9264 309.30902,1066.429 C 302.84608,1097.9317 311.66757,1094.2859 320.30033,1109.1622 z"
       id="path3261"
       sodipodi:nodetypes="czcccccczc" />
  </g>
</svg>
